<?xml version="1.0" encoding="utf-8" ?>
<svg baseProfile="full" height="1100" version="1.1" width="850" xmlns="http://www.w3.org/2000/svg" xmlns:ev="http://www.w3.org/2001/xml-events" xmlns:xlink="http://www.w3.org/1999/xlink"><defs /><rect fill="rgb(255,255,255)" fill-opacity="0.0" height="315" rx="20" ry="20" stroke="rgb(0,0,0)" stroke-opacity="0.05" width="195" x="16" y="16" /><circle cx="146" cy="173" fill="rgb(54,83,238)" r="20" /><circle cx="146" cy="252" fill="rgb(87,32,131)" r="20" /><rect fill="rgb(255,255,255)" fill-opacity="0.0" height="315" rx="20" ry="20" stroke="rgb(0,0,0)" stroke-opacity="0.05" width="195" x="16" y="339" /><circle cx="81" cy="417" fill="rgb(189,19,84)" r="20" /><circle cx="146" cy="496" fill="rgb(54,83,238)" r="20" /><circle cx="146" cy="575" fill="rgb(87,32,131)" r="20" /><rect fill="rgb(255,255,255)" fill-opacity="0.0" height="315" rx="20" ry="20" stroke="rgb(0,0,0)" stroke-opacity="0.05" width="195" x="16" y="662" /><circle cx="81" cy="819" fill="rgb(228,108,33)" r="20" /><circle cx="146" cy="819" fill="rgb(54,83,238)" r="20" /><circle cx="146" cy="898" fill="rgb(87,32,131)" r="20" /><rect fill="rgb(255,255,255)" fill-opacity="0.0" height="315" rx="20" ry="20" stroke="rgb(0,0,0)" stroke-opacity="0.05" width="195" x="219" y="16" /><circle cx="284" cy="94" fill="rgb(189,19,84)" r="20" /><circle cx="284" cy="173" fill="rgb(228,108,33)" r="20" /><circle cx="349" cy="173" fill="rgb(54,83,238)" r="20" /><circle cx="349" cy="252" fill="rgb(87,32,131)" r="20" /><rect fill="rgb(255,255,255)" fill-opacity="0.0" height="315" rx="20" ry="20" stroke="rgb(0,0,0)" stroke-opacity="0.05" width="195" x="219" y="339" /><circle cx="284" cy="575" fill="rgb(226,166,29)" r="20" /><circle cx="349" cy="496" fill="rgb(54,83,238)" r="20" /><circle cx="349" cy="575" fill="rgb(87,32,131)" r="20" /><rect fill="rgb(255,255,255)" fill-opacity="0.0" height="315" rx="20" ry="20" stroke="rgb(0,0,0)" stroke-opacity="0.05" width="195" x="219" y="662" /><circle cx="284" cy="740" fill="rgb(189,19,84)" r="20" /><circle cx="284" cy="898" fill="rgb(226,166,29)" r="20" /><circle cx="349" cy="819" fill="rgb(54,83,238)" r="20" /><circle cx="349" cy="898" fill="rgb(87,32,131)" r="20" /><rect fill="rgb(255,255,255)" fill-opacity="0.0" height="315" rx="20" ry="20" stroke="rgb(0,0,0)" stroke-opacity="0.05" width="195" x="422" y="16" /><circle cx="487" cy="173" fill="rgb(228,108,33)" r="20" /><circle cx="487" cy="252" fill="rgb(226,166,29)" r="20" /><circle cx="552" cy="173" fill="rgb(54,83,238)" r="20" /><circle cx="552" cy="252" fill="rgb(87,32,131)" r="20" /><rect fill="rgb(255,255,255)" fill-opacity="0.0" height="315" rx="20" ry="20" stroke="rgb(0,0,0)" stroke-opacity="0.05" width="195" x="422" y="339" /><circle cx="487" cy="417" fill="rgb(189,19,84)" r="20" /><circle cx="487" cy="496" fill="rgb(228,108,33)" r="20" /><circle cx="487" cy="575" fill="rgb(226,166,29)" r="20" /><circle cx="552" cy="496" fill="rgb(54,83,238)" r="20" /><circle cx="552" cy="575" fill="rgb(87,32,131)" r="20" /><rect fill="rgb(255,255,255)" fill-opacity="0.0" height="315" rx="20" ry="20" stroke="rgb(0,0,0)" stroke-opacity="0.05" width="195" x="422" y="662" /><circle cx="552" cy="740" fill="rgb(46,163,44)" r="20" /><circle cx="552" cy="819" fill="rgb(54,83,238)" r="20" /><circle cx="552" cy="898" fill="rgb(87,32,131)" r="20" /><rect fill="rgb(255,255,255)" fill-opacity="0.0" height="315" rx="20" ry="20" stroke="rgb(0,0,0)" stroke-opacity="0.05" width="195" x="625" y="16" /><circle cx="690" cy="94" fill="rgb(189,19,84)" r="20" /><circle cx="755" cy="94" fill="rgb(46,163,44)" r="20" /><circle cx="755" cy="173" fill="rgb(54,83,238)" r="20" /><circle cx="755" cy="252" fill="rgb(87,32,131)" r="20" /><rect fill="rgb(255,255,255)" fill-opacity="0.0" height="315" rx="20" ry="20" stroke="rgb(0,0,0)" stroke-opacity="0.05" width="195" x="625" y="339" /><circle cx="690" cy="496" fill="rgb(228,108,33)" r="20" /><circle cx="755" cy="417" fill="rgb(46,163,44)" r="20" /><circle cx="755" cy="496" fill="rgb(54,83,238)" r="20" /><circle cx="755" cy="575" fill="rgb(87,32,131)" r="20" /><rect fill="rgb(255,255,255)" fill-opacity="0.0" height="315" rx="20" ry="20" stroke="rgb(0,0,0)" stroke-opacity="0.05" width="195" x="625" y="662" /><circle cx="690" cy="740" fill="rgb(189,19,84)" r="20" /><circle cx="690" cy="819" fill="rgb(228,108,33)" r="20" /><circle cx="755" cy="740" fill="rgb(46,163,44)" r="20" /><circle cx="755" cy="819" fill="rgb(54,83,238)" r="20" /><circle cx="755" cy="898" fill="rgb(87,32,131)" r="20" /></svg>